<svg viewBox="0 0 600 640" xmlns="http://www.w3.org/2000/svg" role="img" aria-label="Mapa do Brasil por estado">
  <path id="AC" class="br-state" data-uf="AC" data-nome="Acre" d="M14.6,221.3 L30.4,228.4 L62.1,235.5 L114.0,260.4 L108.1,265.1 L103.2,266.5 L99.0,271.1 L94.2,270.6 L91.7,274.5 L87.4,276.6 L75.2,274.1 L58.6,275.1 L58.6,258.8 L60.4,253.3 L50.5,260.8 L37.1,261.3 L37.5,258.5 L34.6,254.3 L22.7,253.1 L26.6,247.3 L21.8,240.2 L18.3,238.4 L15.0,232.3 L16.2,230.5 L12.0,227.4 L12.4,224.5 L16.0,224.0 L14.6,221.3 Z" />
  <path id="AL" class="br-state" data-uf="AL" data-nome="Alagoas" d="M537.1,246.3 L549.8,246.2 L547.7,250.0 L547.0,251.0 L532.6,268.2 L524.3,261.0 L507.1,252.0 L513.7,245.5 L524.8,252.7 L534.9,249.8 L537.1,246.3 Z" />
  <path id="AM" class="br-state" data-uf="AM" data-nome="Amazonas" d="M103.2,91.7 L107.4,98.8 L107.6,106.7 L110.8,105.8 L118.2,112.4 L128.4,108.9 L129.0,113.8 L131.9,109.9 L134.0,110.0 L135.1,106.8 L139.1,104.6 L140.0,105.9 L144.8,101.7 L145.7,103.9 L150.4,95.4 L162.2,92.7 L168.3,96.0 L166.9,100.8 L171.9,109.3 L170.6,115.8 L175.4,127.4 L174.0,131.8 L171.0,133.3 L179.5,142.1 L185.3,144.7 L183.3,142.1 L183.8,135.8 L188.9,129.7 L193.0,130.5 L196.5,135.2 L201.4,132.9 L200.2,129.9 L205.2,119.2 L221.0,119.2 L221.3,127.6 L228.9,138.7 L231.2,139.8 L233.2,138.1 L234.0,142.2 L245.0,146.6 L250.9,150.8 L251.7,153.5 L259.7,150.9 L254.7,156.4 L229.8,212.4 L226.8,215.6 L231.5,224.7 L228.1,231.4 L229.4,235.4 L227.9,244.4 L183.8,244.6 L182.0,243.1 L178.2,245.8 L166.3,233.4 L155.6,233.2 L153.5,238.0 L151.1,238.2 L151.4,241.6 L148.5,243.6 L148.3,246.9 L138.7,247.4 L135.1,253.4 L133.1,251.0 L125.5,255.5 L123.1,253.2 L117.0,253.1 L115.7,256.2 L111.5,258.7 L62.1,235.5 L30.4,228.4 L14.6,221.3 L16.8,216.4 L23.8,212.8 L22.4,206.3 L26.2,201.1 L28.3,193.6 L41.2,185.4 L54.2,183.5 L58.2,180.0 L62.7,180.2 L64.5,183.3 L67.8,182.4 L75.6,138.5 L72.4,133.2 L72.6,129.8 L66.5,125.4 L66.7,115.1 L74.4,112.6 L76.1,114.3 L79.5,113.8 L77.4,108.1 L69.4,107.8 L69.4,99.0 L92.8,98.8 L92.1,95.7 L95.8,97.5 L103.2,91.7 Z" />
  <path id="AP" class="br-state" data-uf="AP" data-nome="Amapá" d="M327.8,67.3 L334.5,93.2 L338.0,92.4 L340.9,97.9 L345.3,99.2 L345.7,106.3 L342.9,113.1 L338.5,114.2 L334.9,120.3 L327.3,124.5 L320.9,133.7 L320.6,137.6 L315.5,139.9 L310.6,137.4 L309.2,131.0 L303.6,124.8 L300.2,117.5 L301.2,113.4 L296.9,110.0 L296.7,105.6 L287.6,102.2 L284.5,98.7 L278.5,98.2 L276.7,89.2 L279.3,88.9 L282.8,92.2 L289.1,91.9 L292.0,89.9 L303.4,92.8 L308.8,88.0 L311.9,78.9 L321.4,66.8 L322.7,61.6 L327.8,67.3 Z" />
  <path id="BA" class="br-state" data-uf="BA" data-nome="Bahia" d="M492.5,241.4 L501.0,247.1 L502.7,245.0 L503.6,247.5 L506.2,247.8 L514.0,265.9 L512.3,267.2 L512.9,270.9 L507.4,271.1 L507.2,274.0 L512.9,282.3 L519.4,281.3 L509.7,297.8 L497.0,306.7 L498.0,311.7 L496.5,313.1 L495.6,326.4 L498.5,342.4 L493.5,360.5 L494.6,367.7 L487.2,376.9 L479.6,371.8 L479.5,368.4 L474.0,363.8 L475.8,356.6 L478.7,356.8 L478.8,352.3 L484.6,345.9 L479.5,341.6 L471.4,339.5 L464.2,340.8 L463.9,337.4 L457.7,331.9 L453.7,333.1 L438.7,325.7 L433.7,328.0 L428.9,325.7 L430.3,321.4 L424.3,319.9 L398.5,334.2 L399.3,322.5 L400.9,321.6 L395.9,318.0 L396.2,308.8 L399.0,306.7 L395.2,307.0 L395.1,304.2 L398.0,301.7 L395.3,302.1 L397.4,295.7 L394.7,293.6 L394.1,289.5 L397.2,287.6 L394.4,287.2 L395.2,283.9 L398.4,283.9 L392.9,282.3 L391.0,279.1 L396.6,270.3 L402.0,267.3 L405.1,262.8 L410.0,272.7 L414.4,274.1 L419.3,270.0 L425.4,270.1 L431.9,261.3 L429.3,255.0 L434.4,251.1 L437.2,253.3 L441.5,253.1 L444.4,256.0 L451.6,251.4 L457.2,250.8 L463.5,243.4 L467.2,243.3 L473.4,249.6 L471.9,253.7 L474.0,254.1 L478.0,252.3 L479.2,248.3 L483.2,248.1 L486.9,242.8 L492.5,241.4 Z" />
  <path id="CE" class="br-state" data-uf="CE" data-nome="Ceará" d="M482.4,162.1 L503.8,174.2 L520.7,189.7 L515.3,191.0 L508.1,205.2 L502.3,209.8 L501.8,216.7 L499.7,219.7 L502.9,223.8 L497.0,231.4 L487.3,224.0 L475.1,225.2 L477.5,217.0 L472.5,215.0 L470.1,206.5 L469.8,194.6 L465.3,190.2 L467.5,180.6 L465.3,178.7 L465.5,174.2 L462.9,169.5 L465.2,165.6 L464.3,163.3 L482.4,162.1 Z" />
  <path id="ES" class="br-state" data-uf="ES" data-nome="Espírito Santo" d="M472.6,411.4 L469.4,417.8 L458.9,415.3 L458.9,411.8 L456.6,410.3 L456.9,404.9 L458.3,402.6 L463.5,402.4 L469.5,392.5 L468.5,385.5 L465.4,383.9 L470.0,383.3 L466.6,376.3 L468.0,374.4 L472.0,374.2 L470.1,371.9 L470.4,371.6 L472.9,372.4 L475.3,370.6 L487.3,376.7 L487.0,390.1 L476.8,408.5 L476.3,408.4 L474.0,411.4 L472.6,411.4 Z" />
  <path id="GO" class="br-state" data-uf="GO" data-nome="Goiás" d="M342.0,294.7 L340.1,300.6 L352.9,306.6 L356.4,299.9 L358.4,302.2 L360.2,300.2 L363.5,303.7 L363.8,307.2 L364.8,304.6 L365.8,306.9 L369.5,304.9 L369.6,307.1 L374.3,307.1 L376.3,309.3 L376.9,304.3 L379.8,306.8 L389.2,302.4 L393.3,302.4 L393.8,300.4 L394.5,302.7 L398.0,301.7 L395.1,304.2 L395.7,307.6 L399.0,306.7 L396.2,308.8 L395.9,318.0 L400.9,321.6 L398.3,329.6 L392.6,326.4 L392.6,331.2 L386.8,331.3 L388.0,335.0 L386.4,338.2 L388.3,342.8 L381.3,344.9 L379.9,337.4 L369.1,337.5 L368.0,345.1 L381.5,345.2 L379.4,351.3 L384.0,357.9 L378.2,364.5 L382.0,366.6 L380.6,369.7 L381.8,372.9 L372.5,379.0 L368.2,376.6 L358.9,376.3 L352.8,380.9 L350.6,378.9 L339.9,381.7 L332.9,389.9 L332.5,392.8 L310.3,381.6 L303.8,380.9 L306.0,376.9 L301.2,376.3 L301.7,371.9 L299.2,365.6 L302.5,356.2 L307.8,351.7 L307.1,348.6 L313.0,342.9 L318.2,341.9 L322.9,331.5 L329.1,329.4 L332.6,317.9 L332.1,313.0 L335.8,307.1 L337.6,298.8 L342.0,294.7 Z" />
  <path id="MA" class="br-state" data-uf="MA" data-nome="Maranhão" d="M389.0,253.1 L385.4,247.3 L385.5,247.1 L385.5,246.8 L386.1,246.3 L385.8,245.8 L386.9,245.3 L388.4,239.1 L392.0,238.0 L393.1,234.5 L391.2,232.2 L385.1,234.3 L377.5,225.8 L378.8,223.8 L375.4,222.5 L378.4,219.4 L380.5,209.6 L378.8,199.3 L373.5,195.7 L366.8,194.4 L361.4,196.9 L377.3,185.9 L384.5,176.2 L391.6,162.2 L390.4,160.1 L393.8,157.8 L393.6,153.8 L395.7,152.6 L396.7,148.2 L395.1,147.3 L397.4,146.0 L397.5,139.8 L400.1,137.3 L400.3,140.0 L401.7,137.3 L400.8,139.1 L401.5,138.8 L400.9,139.8 L401.5,140.6 L402.1,139.0 L402.4,139.7 L401.8,140.6 L402.7,140.5 L403.2,138.5 L404.0,138.6 L403.1,140.0 L403.5,142.3 L404.7,141.7 L405.4,140.2 L405.8,141.5 L406.5,140.7 L406.2,141.6 L406.4,141.9 L406.1,142.3 L406.2,142.4 L407.7,140.7 L406.7,142.6 L406.7,144.0 L407.3,144.2 L407.2,142.9 L407.8,143.4 L408.5,141.0 L409.0,141.1 L408.5,146.9 L411.6,144.0 L411.6,143.0 L412.0,142.3 L412.0,142.2 L411.9,142.1 L411.9,142.0 L411.8,142.0 L412.0,141.7 L412.1,141.8 L412.0,142.6 L412.0,143.5 L412.1,143.6 L412.1,143.8 L412.1,143.8 L412.1,143.6 L412.2,143.5 L412.0,143.3 L412.3,143.4 L412.5,143.3 L412.5,143.0 L412.4,142.9 L412.5,142.9 L412.5,143.0 L412.5,143.6 L412.3,143.8 L416.0,142.5 L414.8,145.2 L418.4,145.3 L416.4,146.0 L417.6,146.9 L416.0,147.9 L419.0,147.0 L418.4,147.7 L418.5,148.1 L419.0,148.4 L418.4,148.5 L419.2,148.6 L419.4,147.7 L419.9,148.3 L419.0,149.1 L420.5,149.8 L420.3,152.5 L422.7,157.4 L426.9,156.0 L425.9,156.9 L427.5,158.4 L432.6,153.6 L434.3,155.7 L438.5,155.7 L448.3,160.4 L457.4,160.5 L455.8,167.0 L452.1,170.4 L448.1,170.6 L441.3,181.4 L443.9,194.6 L439.7,200.8 L440.1,206.7 L443.5,210.6 L442.2,215.2 L435.3,217.6 L431.2,215.6 L426.8,216.4 L417.7,225.2 L407.1,229.0 L399.6,246.4 L402.6,254.1 L400.3,264.9 L394.5,263.6 L390.6,257.5 L391.8,254.1 L389.0,253.1 Z" />
  <path id="MG" class="br-state" data-uf="MG" data-nome="Minas Gerais" d="M424.4,320.1 L430.3,321.4 L428.9,325.7 L433.7,328.0 L438.7,325.7 L453.7,333.1 L457.7,331.9 L463.9,337.4 L464.2,340.8 L472.9,339.7 L474.9,341.6 L479.5,341.6 L484.6,345.9 L478.8,352.3 L478.7,356.8 L476.0,356.5 L474.8,359.1 L474.0,363.8 L479.5,368.4 L479.6,371.8 L470.4,371.6 L472.0,374.2 L468.0,374.4 L466.6,376.3 L470.0,383.3 L465.4,383.9 L468.5,385.5 L469.6,392.3 L463.5,402.4 L458.3,402.6 L457.1,404.3 L457.6,408.7 L455.3,412.7 L452.9,413.2 L449.8,422.2 L451.2,423.5 L440.1,428.7 L430.5,428.3 L407.9,436.5 L403.5,435.4 L402.5,439.3 L394.8,440.0 L393.0,437.1 L393.9,434.9 L389.6,431.7 L392.5,420.1 L390.4,418.6 L385.6,419.4 L382.4,412.0 L384.4,408.7 L379.3,399.3 L373.8,399.6 L373.3,401.5 L368.5,400.2 L368.5,401.7 L360.5,402.0 L359.4,405.9 L358.1,402.0 L355.0,404.0 L354.6,399.3 L350.4,398.4 L337.7,396.7 L330.3,400.9 L330.9,392.6 L332.7,392.6 L332.9,389.9 L339.9,381.7 L350.6,378.9 L352.8,380.9 L358.9,376.3 L368.2,376.6 L372.5,379.0 L381.8,372.9 L380.6,369.7 L382.0,366.6 L378.3,363.6 L384.0,357.9 L379.4,351.3 L381.6,344.6 L388.3,342.8 L386.4,338.2 L388.0,335.0 L386.8,331.2 L392.6,331.2 L393.0,326.4 L395.6,329.5 L399.5,329.2 L397.9,333.2 L398.8,334.1 L424.4,320.1 Z" />
  <path id="MS" class="br-state" data-uf="MS" data-nome="Mato Grosso do Sul" d="M290.5,371.0 L301.6,372.6 L301.7,376.8 L306.0,376.9 L303.8,380.9 L309.1,381.2 L329.5,390.5 L331.4,393.6 L329.7,396.0 L330.3,401.1 L322.2,408.5 L321.8,412.7 L318.2,415.5 L318.3,418.5 L310.8,429.4 L294.2,440.6 L292.5,445.7 L289.0,447.7 L287.0,454.9 L284.8,456.1 L279.5,452.5 L270.1,455.1 L267.5,450.0 L266.4,436.5 L263.2,431.4 L258.2,431.3 L255.7,428.5 L249.5,431.6 L233.5,428.7 L235.9,412.8 L231.1,402.1 L235.4,399.3 L231.6,396.4 L237.6,386.1 L236.6,384.5 L239.5,375.4 L241.0,375.3 L236.2,366.0 L241.0,370.7 L246.6,368.3 L250.9,362.5 L259.5,360.5 L273.2,367.2 L280.7,364.7 L284.6,367.4 L287.7,366.7 L292.8,361.4 L292.9,367.4 L290.3,368.6 L289.4,370.4 L290.5,371.0 Z" />
  <path id="MT" class="br-state" data-uf="MT" data-nome="Mato Grosso" d="M195.8,312.3 L204.5,301.4 L204.8,297.5 L208.8,293.7 L204.2,286.8 L204.1,283.3 L206.8,280.6 L206.0,276.8 L199.4,275.0 L184.3,274.9 L185.5,267.1 L183.6,263.4 L185.3,256.1 L183.1,251.1 L185.4,246.3 L183.8,244.6 L227.7,244.6 L229.4,235.4 L228.1,231.4 L231.5,224.6 L238.4,236.5 L239.1,244.1 L244.6,246.5 L250.6,253.0 L341.1,259.1 L335.8,270.4 L333.9,281.2 L335.6,294.9 L334.4,297.4 L337.2,301.2 L332.1,313.0 L332.6,317.9 L329.1,329.4 L322.9,331.5 L318.2,341.9 L313.0,342.9 L307.1,348.6 L307.7,352.0 L302.5,356.2 L299.6,362.4 L299.2,367.8 L301.6,372.6 L289.5,371.0 L292.9,367.4 L292.8,361.4 L287.6,366.8 L284.2,367.4 L280.7,364.7 L273.2,367.2 L259.5,360.5 L250.9,362.5 L246.6,368.3 L241.0,370.7 L237.2,365.5 L232.8,365.0 L227.9,360.8 L226.9,354.1 L229.0,348.0 L203.3,348.0 L202.4,337.1 L197.9,332.0 L202.3,331.9 L202.0,325.3 L198.9,319.3 L200.4,316.5 L195.8,312.3 Z" />
  <path id="PA" class="br-state" data-uf="PA" data-nome="Pará" d="M384.9,134.0 L386.0,133.6 L386.3,134.7 L387.9,133.0 L389.2,135.6 L389.6,134.3 L390.7,133.7 L390.2,136.3 L393.7,134.7 L392.6,136.3 L393.6,137.6 L396.9,135.2 L396.1,136.6 L395.8,139.0 L398.6,136.9 L398.2,137.6 L398.2,139.4 L397.3,140.5 L397.4,146.0 L395.1,147.3 L396.7,148.2 L395.7,152.6 L393.6,153.8 L393.8,157.8 L390.4,160.1 L391.6,162.2 L384.5,176.2 L377.7,185.4 L361.4,196.9 L366.5,197.5 L370.0,200.4 L367.8,202.5 L368.7,205.2 L365.9,208.4 L366.6,211.2 L363.4,212.2 L362.7,215.1 L355.1,218.7 L355.5,223.0 L352.7,227.3 L355.9,230.9 L355.0,236.3 L343.7,251.4 L341.1,259.1 L250.7,253.1 L244.6,246.5 L239.1,244.1 L238.4,236.5 L226.8,215.6 L229.8,212.4 L254.7,156.4 L259.7,150.9 L251.7,153.5 L250.9,150.8 L245.0,146.6 L234.0,142.2 L233.2,138.1 L231.2,139.8 L227.5,137.0 L221.3,127.6 L221.0,105.8 L226.5,105.3 L226.4,102.6 L228.9,100.7 L233.4,102.0 L233.6,99.8 L239.8,99.3 L243.0,95.1 L261.7,97.3 L262.4,94.6 L259.2,91.4 L261.4,87.8 L269.6,89.3 L275.6,87.0 L278.5,98.2 L284.5,98.7 L287.6,102.2 L296.7,105.6 L296.9,110.0 L301.2,113.4 L300.2,117.5 L303.6,124.8 L309.2,131.0 L310.6,137.4 L315.1,139.8 L320.6,137.6 L320.9,133.7 L327.3,124.5 L334.9,120.3 L338.1,114.5 L342.0,113.1 L343.3,118.1 L348.6,117.8 L352.5,122.6 L359.0,125.9 L366.2,126.4 L365.3,129.7 L372.0,132.6 L373.3,130.5 L374.1,132.2 L376.0,130.2 L379.0,133.4 L379.6,131.0 L383.5,132.1 L383.4,133.6 L384.5,132.0 L384.9,134.0 Z" />
  <path id="PB" class="br-state" data-uf="PB" data-nome="Paraíba" d="M521.0,206.4 L522.0,208.0 L519.0,210.7 L517.5,215.7 L520.3,215.5 L520.9,217.3 L526.5,216.0 L528.1,219.5 L531.0,217.2 L530.7,212.1 L532.6,210.0 L538.3,212.7 L552.3,212.6 L554.3,227.3 L550.8,225.2 L545.2,225.9 L544.5,228.8 L532.2,231.0 L529.3,235.1 L524.3,237.8 L521.5,233.0 L519.3,233.2 L524.4,226.4 L521.0,223.6 L509.3,231.2 L506.4,231.2 L505.4,229.1 L502.1,230.2 L500.4,228.2 L502.9,223.8 L499.7,219.7 L501.8,216.7 L502.0,211.3 L504.0,210.5 L508.7,213.1 L513.8,208.6 L521.0,206.4 Z" />
  <path id="PE" class="br-state" data-uf="PE" data-nome="Pernambuco" d="M521.7,224.0 L524.4,226.4 L519.3,233.2 L521.5,233.0 L524.3,237.8 L529.3,235.1 L532.2,231.0 L544.5,228.8 L545.2,225.9 L550.8,225.2 L554.1,227.3 L554.1,233.7 L549.8,246.2 L539.5,245.4 L534.9,249.8 L524.8,252.7 L513.7,245.5 L507.1,252.0 L503.7,245.4 L501.5,247.3 L491.2,241.0 L484.1,245.1 L483.2,248.1 L479.2,248.3 L478.0,252.3 L474.0,254.1 L471.9,253.7 L473.4,249.6 L469.9,245.2 L463.8,243.4 L474.5,235.5 L475.1,231.3 L472.8,226.3 L475.1,225.2 L487.3,224.0 L495.2,231.6 L500.4,228.4 L509.3,231.2 L517.3,224.8 L521.7,224.0 Z" />
  <path id="PI" class="br-state" data-uf="PI" data-nome="Piauí" d="M457.0,161.2 L465.2,164.4 L462.9,169.5 L465.5,174.2 L465.3,178.7 L467.5,180.6 L465.3,190.2 L469.8,194.6 L470.1,206.5 L472.5,215.0 L477.5,217.0 L475.1,225.2 L472.8,226.3 L475.1,231.3 L474.5,235.5 L463.5,243.4 L457.2,250.8 L451.6,251.4 L444.4,256.0 L441.5,253.1 L437.2,253.3 L434.4,251.1 L429.3,255.0 L431.9,261.3 L425.5,270.0 L419.3,270.0 L414.4,274.1 L410.0,272.7 L405.4,263.0 L400.2,264.3 L402.6,254.1 L399.6,246.4 L406.5,230.1 L408.7,227.8 L417.7,225.2 L426.5,216.5 L431.2,215.6 L435.3,217.6 L442.2,215.2 L443.5,210.6 L440.1,206.7 L439.7,200.8 L443.9,194.6 L441.3,181.4 L448.1,170.6 L452.1,170.4 L457.4,164.7 L457.0,161.2 Z" />
  <path id="PR" class="br-state" data-uf="PR" data-nome="Paraná" d="M315.6,434.8 L326.7,436.7 L333.9,440.8 L344.4,439.9 L348.0,442.8 L350.2,447.2 L349.6,453.1 L355.3,459.9 L353.8,464.4 L363.8,464.4 L364.2,470.1 L368.4,468.7 L369.3,471.7 L371.6,472.2 L363.7,482.5 L355.6,482.8 L350.3,486.1 L345.0,482.9 L339.7,484.7 L336.3,482.9 L334.2,486.2 L327.0,487.3 L327.2,491.4 L324.6,492.8 L323.3,490.9 L313.9,489.0 L295.0,486.9 L291.1,482.4 L290.3,477.6 L287.4,477.5 L287.4,475.8 L282.9,478.6 L280.6,477.2 L285.2,460.2 L284.1,456.9 L287.4,454.4 L289.0,447.7 L292.5,445.7 L294.2,440.6 L303.0,435.3 L313.4,436.8 L315.6,434.8 Z" />
  <path id="RJ" class="br-state" data-uf="RJ" data-nome="Rio de Janeiro" d="M420.2,445.3 L417.2,446.4 L415.1,444.7 L416.1,441.3 L425.0,436.8 L418.5,435.9 L416.3,432.8 L430.5,428.3 L440.1,428.7 L451.2,423.5 L449.8,422.2 L452.9,413.2 L456.7,410.4 L458.9,411.8 L458.9,415.3 L469.4,417.8 L467.8,420.7 L469.0,427.4 L455.5,434.8 L455.2,437.4 L456.8,437.9 L454.5,440.0 L454.8,441.3 L440.4,441.0 L439.9,436.8 L437.3,438.3 L437.8,439.6 L439.0,440.6 L437.1,441.5 L435.0,441.6 L433.4,442.3 L431.3,442.1 L433.2,442.0 L429.3,439.9 L418.0,442.0 L417.3,443.9 L417.4,444.5 L420.2,445.3 Z" />
  <path id="RN" class="br-state" data-uf="RN" data-nome="Rio Grande do Norte" d="M520.7,189.7 L528.5,193.3 L545.1,194.2 L548.3,198.7 L552.3,212.7 L538.3,212.7 L532.6,210.0 L530.7,212.1 L531.0,217.2 L528.1,219.5 L526.5,216.0 L520.9,217.3 L520.3,215.5 L517.5,215.7 L521.8,206.6 L513.8,208.6 L508.7,213.1 L502.3,210.7 L504.1,207.1 L508.6,204.3 L515.3,191.0 L520.7,189.7 Z" />
  <path id="RO" class="br-state" data-uf="RO" data-nome="Rondônia" d="M125.8,257.6 L111.5,258.7 L115.7,256.2 L117.0,253.1 L123.1,253.2 L125.5,255.5 L133.1,251.0 L135.1,253.4 L138.7,247.4 L148.3,246.8 L148.4,243.9 L151.4,241.6 L151.1,238.2 L153.5,238.0 L155.6,233.2 L166.0,233.3 L170.7,238.9 L172.9,239.0 L176.3,244.7 L179.3,245.7 L182.0,243.1 L185.4,246.3 L183.1,251.1 L185.3,256.1 L183.6,263.4 L185.5,267.1 L184.3,274.9 L205.9,276.7 L206.8,280.6 L204.1,283.3 L204.2,286.8 L208.8,293.7 L204.8,297.5 L200.4,309.1 L195.9,312.4 L191.7,309.6 L180.2,310.4 L175.7,304.4 L167.2,303.0 L162.0,297.5 L160.1,298.4 L153.3,294.9 L146.3,295.9 L140.5,290.2 L136.0,288.9 L135.3,285.0 L132.9,284.9 L131.5,278.6 L133.0,274.9 L130.5,267.9 L132.5,264.3 L131.3,257.1 L128.7,259.1 L125.8,257.6 Z" />
  <path id="RR" class="br-state" data-uf="RR" data-nome="Roraima" d="M207.6,73.3 L205.9,85.6 L207.2,90.1 L209.6,91.3 L209.2,97.0 L216.1,103.6 L221.1,105.4 L221.0,119.2 L205.2,119.2 L200.2,129.9 L201.5,132.7 L198.4,134.9 L195.3,134.7 L190.7,129.7 L185.9,131.6 L183.2,140.8 L185.2,144.7 L179.5,142.1 L171.0,133.3 L174.0,131.8 L175.4,127.4 L170.6,115.8 L171.5,107.8 L166.9,100.8 L168.3,96.0 L159.2,92.4 L158.6,89.1 L149.6,88.2 L150.4,84.5 L147.1,79.7 L147.8,73.5 L138.9,64.1 L142.6,66.0 L148.1,65.7 L150.8,69.3 L154.7,68.7 L154.8,67.2 L157.3,69.6 L158.2,67.8 L161.3,68.1 L164.7,72.9 L167.8,71.7 L167.7,67.0 L170.3,67.2 L172.0,64.9 L179.0,66.0 L184.1,63.9 L187.4,60.0 L191.9,60.3 L197.5,54.6 L195.7,50.5 L202.8,49.8 L205.9,53.8 L203.5,60.4 L210.2,62.3 L209.5,64.9 L212.4,68.2 L207.6,73.3 Z" />
  <path id="RS" class="br-state" data-uf="RS" data-nome="Rio Grande do Sul" d="M315.9,560.0 L312.9,563.8 L315.1,568.1 L307.8,581.4 L296.9,590.1 L295.2,588.2 L296.7,581.9 L299.1,581.2 L300.9,576.9 L306.1,577.8 L308.4,573.2 L307.9,567.9 L301.6,575.0 L297.3,574.0 L293.7,571.2 L292.3,567.0 L280.7,558.4 L271.7,555.7 L267.0,549.8 L261.0,553.2 L260.8,549.1 L249.9,539.7 L246.3,539.4 L244.2,542.2 L238.4,540.8 L255.4,525.3 L262.9,515.5 L265.3,516.4 L264.2,513.9 L274.5,508.5 L277.6,504.0 L284.9,502.8 L290.5,498.4 L293.7,499.7 L297.5,497.9 L298.4,499.7 L302.2,497.8 L303.0,499.7 L314.2,500.5 L318.0,503.9 L321.6,503.4 L329.2,508.2 L335.5,515.9 L347.4,516.9 L348.5,519.1 L345.1,520.6 L344.1,525.4 L344.8,525.5 L341.9,527.8 L348.2,528.9 L333.5,553.6 L315.4,568.1 L315.1,563.6 L318.5,564.1 L327.0,558.4 L328.0,553.0 L334.5,548.5 L334.2,543.1 L336.2,544.9 L335.9,540.9 L331.3,544.2 L329.9,542.0 L329.1,541.6 L328.5,541.9 L328.1,541.8 L327.6,540.9 L326.9,540.8 L327.1,538.8 L326.2,538.2 L326.3,542.4 L327.4,542.3 L329.0,543.5 L326.8,544.7 L326.2,548.6 L325.0,547.3 L324.2,553.3 L317.6,556.4 L316.0,561.7 L315.9,560.0 Z" />
  <path id="SC" class="br-state" data-uf="SC" data-nome="Santa Catarina" d="M293.4,495.9 L293.7,486.3 L298.7,486.2 L301.4,488.2 L306.3,487.6 L323.3,490.9 L324.6,492.8 L327.2,491.4 L327.0,487.3 L334.2,486.2 L336.3,482.9 L339.7,484.7 L345.0,482.9 L350.3,486.1 L355.6,482.8 L363.0,482.2 L365.1,485.9 L362.5,492.9 L363.5,498.4 L365.4,498.7 L363.3,500.1 L363.9,509.0 L361.6,517.6 L348.2,528.9 L344.7,527.1 L342.6,528.0 L343.7,529.2 L343.3,529.1 L342.1,527.2 L344.7,526.0 L345.1,520.6 L348.4,519.2 L347.4,516.9 L335.5,515.9 L329.2,508.2 L321.6,503.4 L318.0,503.9 L314.2,500.5 L303.0,499.7 L302.2,497.8 L298.4,499.7 L297.5,497.9 L291.1,499.0 L293.4,495.9 Z" />
  <path id="SE" class="br-state" data-uf="SE" data-nome="Sergipe" d="M510.9,254.8 L524.3,261.0 L532.6,268.2 L526.2,271.6 L517.0,282.7 L510.6,280.6 L510.7,277.8 L507.0,273.4 L507.4,271.1 L512.9,270.9 L512.3,267.2 L514.0,265.9 L512.7,261.3 L510.4,260.1 L510.9,254.8 Z" />
  <path id="SP" class="br-state" data-uf="SP" data-nome="São Paulo" d="M401.7,451.8 L397.1,455.0 L394.2,454.7 L386.5,459.0 L370.5,473.3 L371.6,472.2 L369.3,471.7 L368.4,468.7 L363.8,469.7 L363.8,464.4 L353.8,464.4 L355.3,459.9 L349.6,453.1 L348.6,443.6 L344.4,439.9 L333.9,440.8 L326.7,436.7 L315.0,434.6 L313.4,436.8 L301.1,435.7 L310.8,429.4 L318.3,418.5 L318.2,415.5 L321.8,412.7 L322.2,408.5 L336.2,397.2 L354.4,399.2 L354.7,403.7 L358.1,402.0 L359.4,405.9 L360.5,402.0 L368.5,401.7 L368.5,400.2 L373.3,401.5 L373.8,399.6 L379.2,399.2 L382.5,402.8 L381.7,406.0 L384.4,408.9 L382.4,412.0 L385.6,419.4 L390.4,418.6 L392.5,420.1 L389.6,431.7 L393.9,434.9 L393.0,437.1 L394.9,438.0 L394.6,439.8 L402.5,439.3 L403.5,435.4 L407.9,436.5 L416.1,433.0 L418.5,435.9 L425.0,436.8 L423.5,438.9 L416.3,441.0 L415.0,444.4 L417.2,446.4 L414.7,445.9 L407.8,449.9 L407.8,452.6 L401.7,451.8 Z" />
  <path id="TO" class="br-state" data-uf="TO" data-nome="Tocantins" d="M388.4,239.1 L384.8,248.3 L386.8,248.4 L389.0,253.1 L391.8,254.1 L390.6,257.5 L394.5,263.6 L402.4,265.0 L403.7,263.6 L402.0,267.3 L396.6,270.3 L391.0,279.1 L392.9,282.3 L398.4,283.7 L395.2,283.9 L394.4,287.2 L397.2,287.6 L394.1,289.5 L394.7,293.6 L397.4,295.7 L395.3,302.1 L397.9,301.8 L394.5,302.7 L393.8,300.4 L393.3,302.4 L389.2,302.4 L379.8,306.8 L376.9,304.3 L376.3,309.3 L374.3,307.1 L369.6,307.1 L369.5,304.9 L365.8,306.9 L364.8,304.6 L363.8,307.2 L363.5,303.7 L360.0,300.1 L358.4,302.2 L356.4,299.9 L354.7,301.2 L352.9,306.6 L340.1,300.6 L342.2,294.5 L337.1,300.9 L335.6,300.3 L333.9,281.4 L335.8,270.4 L343.7,251.4 L354.1,238.8 L355.9,230.9 L352.7,227.3 L355.5,223.0 L355.1,218.7 L366.6,211.2 L367.8,202.5 L370.0,200.6 L366.5,197.5 L361.6,197.2 L364.7,194.7 L372.8,195.4 L378.8,199.3 L380.5,209.6 L378.4,219.4 L375.4,222.5 L378.8,223.8 L377.5,225.8 L385.1,234.3 L391.2,232.2 L393.0,233.8 L392.5,237.3 L388.4,239.1 Z" />
  <path id="DF" class="br-state" data-uf="DF" data-nome="Distrito Federal" d="M379.9,337.4 L381.4,345.1 L368.0,345.1 L369.1,337.5 L379.9,337.4 Z" />
</svg>
